<?xml version="1.0" encoding="UTF-8" standalone="no"?>
<!-- Created with Inkscape (http://www.inkscape.org/) -->

<svg
   xmlns:dc="http://purl.org/dc/elements/1.1/"
   xmlns:cc="http://creativecommons.org/ns#"
   xmlns:rdf="http://www.w3.org/1999/02/22-rdf-syntax-ns#"
   xmlns:svg="http://www.w3.org/2000/svg"
   xmlns="http://www.w3.org/2000/svg"
   xmlns:sodipodi="http://sodipodi.sourceforge.net/DTD/sodipodi-0.dtd"
   xmlns:inkscape="http://www.inkscape.org/namespaces/inkscape"
   version="1.0"
   width="647.52826"
   height="267.36652"
   id="svg2"
   sodipodi:docname="proxy.svg"
   inkscape:version="0.92.3 (2405546, 2018-03-11)">
  <metadata
     id="metadata33">
    <rdf:RDF>
      <cc:Work
         rdf:about="">
        <dc:format>image/svg+xml</dc:format>
        <dc:type
           rdf:resource="http://purl.org/dc/dcmitype/StillImage" />
        <dc:title></dc:title>
      </cc:Work>
    </rdf:RDF>
  </metadata>
  <sodipodi:namedview
     pagecolor="#ffffff"
     bordercolor="#666666"
     borderopacity="1"
     objecttolerance="10"
     gridtolerance="10"
     guidetolerance="10"
     inkscape:pageopacity="0"
     inkscape:pageshadow="2"
     inkscape:window-width="1859"
     inkscape:window-height="1025"
     id="namedview31"
     showgrid="false"
     inkscape:zoom="0.71811535"
     inkscape:cx="48.738686"
     inkscape:cy="129.3552"
     inkscape:window-x="61"
     inkscape:window-y="27"
     inkscape:window-maximized="1"
     inkscape:current-layer="svg2"
     fit-margin-top="0"
     fit-margin-left="0"
     fit-margin-right="0"
     fit-margin-bottom="0" />
  <defs
     id="defs4" />
  <rect
     style="fill:#ffffff;fill-opacity:1;stroke-width:1.06767905"
     id="rect4546"
     width="647.52826"
     height="267.36652"
     x="0"
     y="0" />
  <g
     transform="translate(-50.289593,-394.35087)"
     id="layer1">
    <rect
       width="115"
       height="90"
       x="317.5"
       y="477.36218"
       id="rect3243"
       style="opacity:1;fill:#e3baa3;fill-opacity:1;fill-rule:evenodd;stroke:#3a3a3a;stroke-width:2;stroke-linecap:round;stroke-linejoin:miter;stroke-miterlimit:4;stroke-dasharray:none;stroke-dashoffset:0;stroke-opacity:1" />
    <rect
       width="102"
       height="80.5"
       x="96.5"
       y="412.36218"
       id="rect3227"
       style="opacity:1;fill:#e5e5e5;fill-opacity:1;fill-rule:evenodd;stroke:#3a3a3a;stroke-width:2;stroke-linecap:round;stroke-linejoin:miter;stroke-miterlimit:4;stroke-dasharray:none;stroke-dashoffset:0;stroke-opacity:1" />
    <rect
       width="81.5"
       height="58.999996"
       x="107"
       y="422.86218"
       id="rect2455"
       style="opacity:1;fill:#ffffff;fill-opacity:1;fill-rule:evenodd;stroke:#3a3a3a;stroke-width:1;stroke-linecap:round;stroke-linejoin:miter;stroke-miterlimit:4;stroke-dasharray:none;stroke-dashoffset:0;stroke-opacity:1" />
    <rect
       width="47.321426"
       height="8.9999971"
       x="123.67857"
       y="492.86218"
       id="rect3229"
       style="opacity:1;fill:#7f7f7f;fill-opacity:1;fill-rule:evenodd;stroke:#3a3a3a;stroke-width:1;stroke-linecap:round;stroke-linejoin:miter;stroke-miterlimit:4;stroke-dasharray:none;stroke-dashoffset:0;stroke-opacity:1" />
    <rect
       width="103"
       height="31.000046"
       x="96"
       y="501.86218"
       id="rect3231"
       style="opacity:1;fill:#e5e5e5;fill-opacity:1;fill-rule:evenodd;stroke:#3a3a3a;stroke-width:1;stroke-linecap:round;stroke-linejoin:miter;stroke-miterlimit:4;stroke-dasharray:none;stroke-dashoffset:0;stroke-opacity:1" />
    <path
       d="m 27.5,127 c 0,0 -27.5,24.5 -27.5,24.5 0,0 157.5,0 157.5,0 0,0 -27.5,-24.5 -27.5,-24.5 0,0 -102.5,0 -102.5,0"
       transform="translate(68.5,411.36218)"
       id="path3233"
       style="fill:#ebebeb;fill-opacity:1;fill-rule:evenodd;stroke:#3a3a3a;stroke-width:1px;stroke-linecap:butt;stroke-linejoin:miter;stroke-opacity:1"
       inkscape:connector-curvature="0" />
    <path
       d="m 99.5,542.36218 c 0,0 -15,14.5 -15,14.5 0,0 92.5,0 92.5,0 0,0 -9,-14.5 -9,-14.5 0,0 -68.5,0 -68.5,0"
       id="path3235"
       style="fill:#999999;fill-opacity:1;fill-rule:evenodd;stroke:none;stroke-width:1px;stroke-linecap:butt;stroke-linejoin:miter;stroke-opacity:1"
       inkscape:connector-curvature="0" />
    <path
       d="m 173.5,542.36218 c 0,0 9.5,14.5 9.5,14.5 0,0 27,0 27,0 0,0 -13,-14.5 -13,-14.5 0,0 -23.5,0 -23.5,0"
       id="path3237"
       style="fill:#999999;fill-opacity:1;fill-rule:evenodd;stroke:none;stroke-width:1px;stroke-linecap:butt;stroke-linejoin:miter;stroke-opacity:1"
       inkscape:connector-curvature="0" />
    <rect
       width="159.5"
       height="5.0000787"
       x="67.5"
       y="562.86218"
       id="rect3239"
       style="opacity:1;fill:#b2b2b2;fill-opacity:1;fill-rule:evenodd;stroke:#3a3a3a;stroke-width:1;stroke-linecap:round;stroke-linejoin:miter;stroke-miterlimit:4;stroke-dasharray:none;stroke-dashoffset:0;stroke-opacity:1" />
    <rect
       width="92"
       height="67"
       x="329"
       y="488.86218"
       id="rect3241"
       style="opacity:1;fill:#ffffff;fill-opacity:1;fill-rule:evenodd;stroke:#3a3a3a;stroke-width:1;stroke-linecap:round;stroke-linejoin:miter;stroke-miterlimit:4;stroke-dasharray:none;stroke-dashoffset:0;stroke-opacity:1" />
    <rect
       width="53.5"
       height="9.9999971"
       x="348"
       y="567.86218"
       id="rect3245"
       style="opacity:1;fill:#cc6633;fill-opacity:1;fill-rule:evenodd;stroke:#3a3a3a;stroke-width:1;stroke-linecap:round;stroke-linejoin:miter;stroke-miterlimit:4;stroke-dasharray:none;stroke-dashoffset:0;stroke-opacity:1" />
    <rect
       width="116"
       height="34.999996"
       x="317"
       y="577.86218"
       id="rect3247"
       style="opacity:1;fill:#edaf8e;fill-opacity:1;fill-rule:evenodd;stroke:#3a3a3a;stroke-width:1;stroke-linecap:round;stroke-linejoin:miter;stroke-miterlimit:4;stroke-dasharray:none;stroke-dashoffset:0;stroke-opacity:1" />
    <path
       d="m 317,618.86218 c 0,0 -29,26.5 -29,26.5 0,0 174,0.5 174,0.5 0,0 -29,-27 -29,-27 0,0 -116,0 -116,0"
       id="path3249"
       style="fill:#edaf8e;fill-opacity:1;fill-rule:evenodd;stroke:#3a3a3a;stroke-width:1px;stroke-linecap:butt;stroke-linejoin:miter;stroke-opacity:1"
       inkscape:connector-curvature="0" />
    <path
       d="m 320.52703,622.36218 c 0,0 -17.02703,18 -17.02703,18 0,0 105,0 105,0 0,0 -10.21622,-18 -10.21622,-18 0,0 -77.75675,0 -77.75675,0"
       id="path3251"
       style="fill:#cc6633;fill-opacity:1;fill-rule:evenodd;stroke:none;stroke-width:1px;stroke-linecap:butt;stroke-linejoin:miter;stroke-opacity:1"
       inkscape:connector-curvature="0" />
    <path
       d="m 403,622.36218 c 0,0 11.23332,18 11.23332,18 0,0 31.92625,0 31.92625,0 0,0 -15.3719,-18 -15.3719,-18 0,0 -27.78767,0 -27.78767,0"
       id="path3253"
       style="fill:#cc6633;fill-opacity:1;fill-rule:evenodd;stroke:none;stroke-width:1px;stroke-linecap:butt;stroke-linejoin:miter;stroke-opacity:1"
       inkscape:connector-curvature="0" />
    <rect
       width="176"
       height="7.0000587"
       x="287"
       y="645.86212"
       id="rect3255"
       style="opacity:1;fill:#edaf8e;fill-opacity:1;fill-rule:evenodd;stroke:#3a3a3a;stroke-width:1;stroke-linecap:round;stroke-linejoin:miter;stroke-miterlimit:4;stroke-dasharray:none;stroke-dashoffset:0;stroke-opacity:1" />
    <rect
       width="102"
       height="80.5"
       x="551.5"
       y="412.36218"
       id="rect3257"
       style="opacity:1;fill:#e5e5e5;fill-opacity:1;fill-rule:evenodd;stroke:#3a3a3a;stroke-width:2;stroke-linecap:round;stroke-linejoin:miter;stroke-miterlimit:4;stroke-dasharray:none;stroke-dashoffset:0;stroke-opacity:1" />
    <rect
       width="81.5"
       height="58.999996"
       x="562"
       y="422.86218"
       id="rect3259"
       style="opacity:1;fill:#ffffff;fill-opacity:1;fill-rule:evenodd;stroke:#3a3a3a;stroke-width:1;stroke-linecap:round;stroke-linejoin:miter;stroke-miterlimit:4;stroke-dasharray:none;stroke-dashoffset:0;stroke-opacity:1" />
    <rect
       width="47.321426"
       height="8.9999971"
       x="578.67859"
       y="492.86218"
       id="rect3261"
       style="opacity:1;fill:#7f7f7f;fill-opacity:1;fill-rule:evenodd;stroke:#3a3a3a;stroke-width:1;stroke-linecap:round;stroke-linejoin:miter;stroke-miterlimit:4;stroke-dasharray:none;stroke-dashoffset:0;stroke-opacity:1" />
    <rect
       width="103"
       height="31.000046"
       x="551"
       y="501.86218"
       id="rect3263"
       style="opacity:1;fill:#e5e5e5;fill-opacity:1;fill-rule:evenodd;stroke:#3a3a3a;stroke-width:1;stroke-linecap:round;stroke-linejoin:miter;stroke-miterlimit:4;stroke-dasharray:none;stroke-dashoffset:0;stroke-opacity:1" />
    <path
       d="m 551.00001,538.36218 c 0,0 -27.5,24.5 -27.5,24.5 0,0 157.5,0 157.5,0 0,0 -27.5,-24.5 -27.5,-24.5 0,0 -102.5,0 -102.5,0"
       id="path3265"
       style="fill:#ebebeb;fill-opacity:1;fill-rule:evenodd;stroke:#3a3a3a;stroke-width:1px;stroke-linecap:butt;stroke-linejoin:miter;stroke-opacity:1"
       inkscape:connector-curvature="0" />
    <path
       d="m 554.50001,542.36218 c 0,0 -15,14.5 -15,14.5 0,0 92.5,0 92.5,0 0,0 -9,-14.5 -9,-14.5 0,0 -68.5,0 -68.5,0"
       id="path3267"
       style="fill:#999999;fill-opacity:1;fill-rule:evenodd;stroke:none;stroke-width:1px;stroke-linecap:butt;stroke-linejoin:miter;stroke-opacity:1"
       inkscape:connector-curvature="0" />
    <path
       d="m 628.50001,542.36218 c 0,0 9.5,14.5 9.5,14.5 0,0 27,0 27,0 0,0 -13,-14.5 -13,-14.5 0,0 -23.5,0 -23.5,0"
       id="path3269"
       style="fill:#999999;fill-opacity:1;fill-rule:evenodd;stroke:none;stroke-width:1px;stroke-linecap:butt;stroke-linejoin:miter;stroke-opacity:1"
       inkscape:connector-curvature="0" />
    <rect
       width="159.5"
       height="5.0000787"
       x="522.5"
       y="562.86218"
       id="rect3271"
       style="opacity:1;fill:#b2b2b2;fill-opacity:1;fill-rule:evenodd;stroke:#3a3a3a;stroke-width:1;stroke-linecap:round;stroke-linejoin:miter;stroke-miterlimit:4;stroke-dasharray:none;stroke-dashoffset:0;stroke-opacity:1" />
    <path
       d="m 224.86038,574.72256 c 0,0 63.63962,63.63962 63.63962,63.63962"
       id="path3275"
       style="fill:none;fill-rule:evenodd;stroke:#000000;stroke-width:4;stroke-linecap:butt;stroke-linejoin:miter;stroke-miterlimit:4;stroke-dasharray:none;stroke-opacity:1"
       inkscape:connector-curvature="0" />
    <path
       d="m 526.63962,574.22256 c 0,0 -63.63962,63.63962 -63.63962,63.63962"
       id="path3277"
       style="fill:none;fill-rule:evenodd;stroke:#000000;stroke-width:4;stroke-linecap:butt;stroke-linejoin:miter;stroke-miterlimit:4;stroke-dasharray:none;stroke-opacity:1"
       inkscape:connector-curvature="0" />
  </g>
</svg>
